<?xml version="1.0" encoding="utf-8" ?>
<svg baseProfile="full" height="200mm" version="1.1" viewBox="0,0,200,200" width="200mm" xmlns="http://www.w3.org/2000/svg" xmlns:ev="http://www.w3.org/2001/xml-events" xmlns:xlink="http://www.w3.org/1999/xlink"><defs /><rect fill="#1a1a1a" height="200" width="200" x="0" y="0" /><text alignment-baseline="middle" fill="#e1ed5e" style="dominant-baseline: central; font-size:9.0px; font-family:Arial;" text-anchor="middle" x="100.0" y="100.0">2017</text><line stroke="#e1ed5e" stroke-width="0.3" x1="100.0" x2="100.0" y1="15.0" y2="10.0" /><path d="M 100.0 14.0 a86.0,86.0 0 0,1 42.46469731375804,11.215312516191453" fill="none" id="id37" stroke="none" /><text fill="#e1ed5e" style="font-size:6.75px; font-family:Arial;" text-anchor="middle"><textPath startOffset="22.20632615414155" xlink:href="#id37">January</textPath></text><line stroke="#e1ed5e" stroke-width="0.3" x1="143.23703022742887" x2="145.7803849466894" y1="26.81831364943548" y2="22.513508569990506" /><path d="M 143.74570117128098 25.957352633546492 a86.0,86.0 0 0,1 28.547481713284135,27.462654790039103" fill="none" id="id38" stroke="none" /><text fill="#e1ed5e" style="font-size:6.75px; font-family:Arial;" text-anchor="middle"><textPath startOffset="19.985693538727396" xlink:href="#id38">February</textPath></text><line stroke="#e1ed5e" stroke-width="0.3" x1="172.23445277983987" x2="176.4835382374775" y1="55.19839476539836" y2="52.563006222186495" /><path d="M 173.08426987136738 54.67131705675599 a86.0,86.0 0 0,1 12.851231095245387,41.99856678651699" fill="none" id="id39" stroke="none" /><text fill="#e1ed5e" style="font-size:6.75px; font-family:Arial;" text-anchor="middle"><textPath startOffset="22.20632615414155" xlink:href="#id39">March</textPath></text><line stroke="#e1ed5e" stroke-width="0.3" x1="184.98032266829074" x2="189.97916517819016" y1="98.17113171792111" y2="98.06355123074" /><path d="M 185.9800911702706 98.14961562048488 a86.0,86.0 0 0,1 -9.607161424134198,41.387399972396054" fill="none" id="id40" stroke="none" /><text fill="#e1ed5e" style="font-size:6.75px; font-family:Arial;" text-anchor="middle"><textPath startOffset="21.466115282336823" xlink:href="#id40">April</textPath></text><line stroke="#e1ed5e" stroke-width="0.3" x1="174.80103733775053" x2="179.2010983576182" y1="140.37084112569926" y2="142.7455964860345" /><path d="M 175.68104954172406 140.8457921977663 a86.0,86.0 0 0,1 -30.038265399797805,32.042727171017184" fill="none" id="id41" stroke="none" /><text fill="#e1ed5e" style="font-size:6.75px; font-family:Arial;" text-anchor="middle"><textPath startOffset="22.206326154141568" xlink:href="#id41">May</textPath></text><line stroke="#e1ed5e" stroke-width="0.3" x1="143.8653032363475" x2="146.44561519142675" y1="172.8068346515853" y2="177.08958963109032" /><path d="M 144.38136562736335 173.6633856474863 a86.0,86.0 0 0,1 -40.68145358897372,12.25698825130547" fill="none" id="id42" stroke="none" /><text fill="#e1ed5e" style="font-size:6.75px; font-family:Arial;" text-anchor="middle"><textPath startOffset="21.466115282336833" xlink:href="#id42">June</textPath></text><path d="M 109.89434966115114 118.52300852407294 l 26.16948974704214 48.991363581818746 a76.54273939252997,76.54273939252997 0 0,0 -1.1674921796652822,0.6107767293128268 l -25.322306664850363 -49.43456973007629" fill="#8aff24" stroke="none" /><path d="M 107.93186726928326 119.44442032107085 l 20.735202549787594 50.83090527522687 a75.89744580469846,75.89744580469846 0 0,0 -1.213921544192995,0.4830444349198722 l -19.857159929552733 -51.18029655455281" fill="#a9ff21" stroke="none" /><path d="M 105.53697534728816 120.25689768951611 l 14.678109588646889 53.69952827374428 a76.66943719779273,76.66943719779273 0 0,0 -1.276033383090107,0.3370120141610407 l -13.751585762745284 -53.9442316372089" fill="#84ff25" stroke="none" /><line stroke="#e1ed5e" stroke-width="0.3" x1="102.19456741930631" x2="102.32365962044197" y1="184.97166512339345" y2="189.96999836594603" /><path d="M 102.22038585953345 185.97133177190398 a86.0,86.0 0 0,1 -42.740103519485714,-10.115201625700543" fill="none" id="id43" stroke="none" /><text fill="#e1ed5e" style="font-size:6.75px; font-family:Arial;" text-anchor="middle"><textPath startOffset="22.20632615414155" xlink:href="#id43">July</textPath></text><path d="M 100.54218724476979 120.99299961872073 l 1.421871309169481 55.05357077136422 a76.07192908095237,76.07192908095237 0 0,0 -1.3093076970229713,0.022540919386875292 l -0.4740039222538417 -55.06988916803025" fill="#a0ff22" stroke="none" /><path d="M 98.01472825383883 120.90594882070398 l -5.078884096930415 53.483303332164766 a74.7239127297184,74.7239127297184 0 0,0 -1.2794420605569095,-0.13261940089967736 l 5.998758754092918 -53.38795456280933" fill="#e4ff1a" stroke="none" /><path d="M 92.7421414339146 119.70592522655815 l -21.773575698256195 59.117775679674445 a84.0,84.0 0 0,0 -1.3525191169588682,-0.5114069995734671 l 22.787965035975347 -58.734220429994345" fill="#4dd2ff" stroke="none" /><path d="M 90.7491055286396 118.85261126421891 l -23.48054456723053 47.85154347707824 a74.30202797560716,74.30202797560716 0 0,0 -1.1433528567411269,-0.5733008579859555 l 24.300751331654418 -47.44027477818298" fill="#faff18" stroke="none" /><line stroke="#e1ed5e" stroke-width="0.3" x1="58.666819895761336" x2="56.23545636021788" y1="174.27360380694188" y2="178.64263932499728" /><path d="M 58.180547188652646 175.14741091055294 a86.0,86.0 0 0,1 -31.652253787137756,-30.449443065178592" fill="none" id="id44" stroke="none" /><text fill="#e1ed5e" style="font-size:6.75px; font-family:Arial;" text-anchor="middle"><textPath startOffset="22.20632615414155" xlink:href="#id44">August</textPath></text><path d="M 86.51685102203217 116.09983520530335 l -35.952600972193345 42.9299529212487 a76.99616392652614,76.99616392652614 0 0,0 -1.0087763270152188,-0.8597010708174191 l 36.68624277578562 -42.304727460208326" fill="#75ff27" stroke="none" /><path d="M 84.43433777217949 114.09645910891817 l -43.41417380194555 39.31642077217821 a79.57108014404807,79.57108014404807 0 0,0 -0.9106764255497514,-1.023154618119658 l 44.08450907714364 -38.563291984317694" fill="#35ff64" stroke="none" /><line stroke="#e1ed5e" stroke-width="0.3" x1="26.63291911575756" x2="22.317208475507996" y1="142.92168965132927" y2="145.44649492493687" /><path d="M 25.769776987707644 143.4266507060508 a86.0,86.0 0 0,1 -11.730757126820373,-40.83630448921669" fill="none" id="id45" stroke="none" /><text fill="#e1ed5e" style="font-size:6.75px; font-family:Arial;" text-anchor="middle"><textPath startOffset="21.46611528233685" xlink:href="#id45">September</textPath></text><path d="M 79.23777060512086 103.15116336523772 l -53.31929027576187 8.092473644419764 a74.92990677904592,74.92990677904592 0 0,0 -0.18256475178988835,-1.276857448808003 l 53.45068907856836 -7.17347072363136" fill="#d9ff1c" stroke="none" /><line stroke="#e1ed5e" stroke-width="0.3" x1="15.007084014347285" x2="10.007500721073583" y1="101.09737516637583" y2="101.16192664675087" /><path d="M 14.007167355692545 101.11028546245083 a86.0,86.0 0 0,1 10.666146001902534,-42.60595125391555" fill="none" id="id46" stroke="none" /><text fill="#e1ed5e" style="font-size:6.75px; font-family:Arial;" text-anchor="middle"><textPath startOffset="22.20632615414155" xlink:href="#id46">October</textPath></text><path d="M 79.00019446554 99.90962569577889 l -61.867892313417144 -0.2662533094545652 a82.8684652317267,82.8684652317267 0 0,0 0.018416501781062133,-1.4263783586402672 l 61.85414280451837 1.3311679261553044" fill="#47fffe" stroke="none" /><path d="M 79.08570108090925 98.10471618934814 l -55.857793734787414 -5.061913505866428 a77.08668370708799,77.08668370708799 0 0,0 0.1311313292210521,-1.3204745898232222 l 55.762385279884136 6.022663626394081" fill="#70ff27" stroke="none" /><line stroke="#e1ed5e" stroke-width="0.3" x1="26.266209847984243" x2="21.928928074336255" y1="57.711370442889674" y2="55.22380399835377" /><path d="M 25.398753493254645 57.213857153982495 a86.0,86.0 0 0,1 29.58750427330803,-30.492523968695096" fill="none" id="id47" stroke="none" /><text fill="#e1ed5e" style="font-size:6.75px; font-family:Arial;" text-anchor="middle"><textPath startOffset="21.46611528233685" xlink:href="#id47">November</textPath></text><line stroke="#e1ed5e" stroke-width="0.3" x1="56.762969772571076" x2="54.21961505331055" y1="26.818313649435495" y2="22.513508569990535" /><path d="M 56.25429882871897 25.957352633546506 a86.0,86.0 0 0,1 42.265352541879196,-11.944610805530505" fill="none" id="id48" stroke="none" /><text fill="#e1ed5e" style="font-size:6.75px; font-family:Arial;" text-anchor="middle"><textPath startOffset="22.20632615414155" xlink:href="#id48">December</textPath></text><path d="M 94.28887869178378 79.79150937346287 l -13.290134492267262 -47.02641457221735 a69.86830611286427,69.86830611286427 0 0,0 1.1601536103770889,-0.3171138067725879 l 12.47868299266645 47.24821491981623" fill="#ff0000" stroke="none" /><path d="M 97.11714578562143 79.19881850522333 l -7.24845796640232 -52.30111497292487 a73.80101107272291,73.80101107272291 0 0,0 1.2598369281333175,-0.16356299083364947 l 6.347106309761145 52.41813628692266" fill="#ffe915" stroke="none" /></svg>