<?xml version="1.0" encoding="utf-8" ?>
<svg baseProfile="full" height="200mm" version="1.1" viewBox="0,0,200,200" width="200mm" xmlns="http://www.w3.org/2000/svg" xmlns:ev="http://www.w3.org/2001/xml-events" xmlns:xlink="http://www.w3.org/1999/xlink"><defs /><rect fill="#1a1a1a" height="200" width="200" x="0" y="0" /><text alignment-baseline="middle" fill="#e1ed5e" style="dominant-baseline: central; font-size:9.0px; font-family:Arial;" text-anchor="middle" x="100.0" y="100.0">2016</text><line stroke="#e1ed5e" stroke-width="0.3" x1="100.0" x2="100.0" y1="15.0" y2="10.0" /><path d="M 100.0 14.0 a86.0,86.0 0 0,1 42.35913384403234,11.155469271406648" fill="none" id="id25" stroke="none" /><text fill="#e1ed5e" style="font-size:6.75px; font-family:Arial;" text-anchor="middle"><textPath startOffset="22.145653131862478" xlink:href="#id25">January</textPath></text><path d="M 100.0 79.0 l 0.0 -43.02190853103488 a64.02190853103488,64.02190853103488 0 0,0 1.0990211933694578,0.009433775150605303 l -0.7385282685206029 43.01556915407871" fill="#7aff26" stroke="none" /><path d="M 108.07796709384702 80.6158196554323 l 22.35337276557643 -53.63995717775662 a79.11125777358788,79.11125777358788 0 0,0 1.2490722969939239,0.5331546891567817 l -23.270880137740782 53.24832783894044" fill="#43ffe3" stroke="none" /><path d="M 110.34350942703115 81.72400993836675 l 24.13022508001564 -42.635795602877764 a69.99059939521649,69.99059939521649 0 0,0 1.0405520147691478,0.600762985832775 l -24.858569562645187 42.215285719768815" fill="#32ff47" stroke="none" /><line stroke="#e1ed5e" stroke-width="0.3" x1="143.13028292997686" x2="145.6673583964461" y1="26.7553504044142" y2="22.446841604673864" /><path d="M 143.63769802327073 25.89364864446614 a86.0,86.0 0 0,1 29.32050498858742,28.57503671076993" fill="none" id="id26" stroke="none" /><text fill="#e1ed5e" style="font-size:6.75px; font-family:Arial;" text-anchor="middle"><textPath startOffset="20.669276256404974" xlink:href="#id26">February</textPath></text><path d="M 112.45986205192187 83.09580414077388 l 32.008938763990066 -43.42627292803803 a74.94824687807116,74.94824687807116 0 0,0 1.029100141603324,0.7722559316349427 l -32.74969189450416 42.87039796913907" fill="#3bff9f" stroke="none" /><path d="M 112.7482090630111 83.31218511350987 l 37.38258765191859 -48.935007233546315 a82.579970708832,82.579970708832 0 0,0 1.1191161160022816,0.8702314607166864 l -38.2171137125561 48.286074721208834" fill="#4ae6ff" stroke="none" /><path d="M 113.31354834802062 83.75963576809568 l 37.3044382352113 -45.50534903014658 a79.84180403760712,79.84180403760712 0 0,0 1.052488598306013,0.8780234217610197 l -38.0801011676792 44.8582634244737" fill="#45ffef" stroke="none" /><path d="M 116.7966241395341 87.39550010848427 l 42.28848390367301 -31.734066699845556 a73.87122903982333,73.87122903982333 0 0,0 0.7524241286894693,1.0208078378052663 l -42.82701005194631 31.003452552771414" fill="#39ff8d" stroke="none" /><path d="M 117.01052211995028 87.68569379921539 l 40.65911230937815 -29.434061770658722 a71.19489422347236,71.19489422347236 0 0,0 0.7081684983352332,0.9961276792792458 l -41.15839590624334 28.731756864669972" fill="#34ff5d" stroke="none" /><path d="M 117.42321728460499 88.27688183743584 l 52.19052932925206 -35.116117322040466 a83.90463454661214,83.90463454661214 0 0,0 0.7938000164618925,1.2019143986775565 l -52.785653784634675 34.21502304502385" fill="#4dd3ff" stroke="none" /><path d="M 117.62189284568427 88.57770195909679 l 50.18497020628882 -32.52929137010766 a80.80540135846809,80.80540135846809 0 0,0 0.7444959801872788,1.170471338349879 l -50.73598387810198 31.663006357079105" fill="#47fffd" stroke="none" /><path d="M 117.81537515405839 88.88188828441811 l 49.199902608486724 -30.70437803675968 a78.99473465159427,78.99473465159427 0 0,0 0.7080637952749977,1.1565689965216546 l -49.719734368217125 29.855271924113474" fill="#43ffe1" stroke="none" /><line stroke="#e1ed5e" stroke-width="0.3" x1="172.87174338648825" x2="177.1583165268699" y1="56.24261187166439" y2="53.66864786411523" /><path d="M 173.72905801456457 55.72781907015455 a86.0,86.0 0 0,1 12.242430191666344,42.057860355516425" fill="none" id="id27" stroke="none" /><text fill="#e1ed5e" style="font-size:6.75px; font-family:Arial;" text-anchor="middle"><textPath startOffset="22.145653131862474" xlink:href="#id27">March</textPath></text><path d="M 118.18653347947321 89.5 l 49.28903139664867 -28.457035544951033 a77.91407108990205,77.91407108990205 0 0,0 0.6588066390913905,1.1640482056415618 l -49.77027140076144 27.606730569210352" fill="#41ffd0" stroke="none" /><path d="M 118.70294669586156 90.45014215332178 l 39.33254317697321 -20.08347680162838 a65.1632765225816,65.1632765225816 0 0,0 0.5001439316817754,1.0006228965011974 l -39.671507021866724 19.40532204896343" fill="#67ff28" stroke="none" /><path d="M 119.4528033332814 92.08871423366111 l 49.891135264662914 -20.290290377352793 a74.85927275404103,74.85927275404103 0 0,0 0.473899567190215,1.194536483429115 l -50.232093506819254 19.430852876710112" fill="#3bff9e" stroke="none" /><path d="M 119.83427380445688 93.10060997987247 l 56.61941526633563 -19.695171725734323 a80.94712648999888,80.94712648999888 0 0,0 0.4452653900676508,1.3163480072601357 l -56.94916607797565 18.720322044000024" fill="#47ffff" stroke="none" /><path d="M 120.592083275326 95.88100663000786 l 54.46394519773178 -10.89431439129224 a76.54284303632511,76.54284303632511 0 0,0 0.24666371369204795,1.2906487802009687 l -54.64293520370599 9.957763046057957" fill="#3fffba" stroke="none" /><path d="M 120.77682067341334 96.94652285012252 l 55.97070136913952 -8.225765644306668 a77.57192441652,77.57192441652 0 0,0 0.18231427768189798,1.3191352935504068 l -56.10366016337663 7.263742042556175" fill="#41ffcb" stroke="none" /><path d="M 120.9064616781168 98.02013634271609 l 59.94452161582121 -5.676808521102412 a81.21272146926194,81.21272146926194 0 0,0 0.11952338149868075,1.389042868433409 l -60.03313862001763 4.646944605293341" fill="#48fbff" stroke="none" /><path d="M 120.96210409425399 98.7389718711861 l 62.886312282761985 -3.783084386441734 a84.0,84.0 0 0,0 0.07423364217370931,1.4401128264930774 l -62.94198751439227 2.7029997665719256" fill="#4dd2ff" stroke="none" /><line stroke="#e1ed5e" stroke-width="0.3" x1="184.99686870605535" x2="189.99668451229388" y1="99.2704041080226" y2="99.22748670261217" /><path d="M 185.99683186730306 99.26182062694052 a86.0,86.0 0 0,1 -10.086455211305974,41.156179273409016" fill="none" id="id28" stroke="none" /><text fill="#e1ed5e" style="font-size:6.75px; font-family:Arial;" text-anchor="middle"><textPath startOffset="21.40746469413373" xlink:href="#id28">April</textPath></text><path d="M 120.96210409425399 101.26102812881392 l 55.93162761939076 3.3647078270988335 a77.0327424539968,77.0327424539968 0 0,0 -0.09073737661445369,1.3193015418573726 l -55.86562628161124 -4.32435279311055" fill="#3fffc2" stroke="none" /><path d="M 120.86939407059847 102.33845913500097 l 55.29335630652113 6.1957359050501895 a76.63939607009613,76.63939607009613 0 0,0 -0.15772356230804221,1.3061773547742226 l -55.178850657953426 -7.14400693674782" fill="#3fffbb" stroke="none" /><path d="M 120.7213421655516 103.40968896794604 l 54.59354128309686 8.98334644285464 a76.3277079151265,76.3277079151265 0 0,0 -0.22384075344535695,1.2910539825073957 l -54.43128571215927 -9.919193458282624" fill="#3effb6" stroke="none" /><path d="M 120.592083275326 104.11899336999214 l 54.19020964339929 10.83955961401442 a76.26368494609582,76.26368494609582 0 0,0 -0.2678027956616457,1.2815333229442771 l -53.99614913691328 -11.768209388244106" fill="#3effb5" stroke="none" /><path d="M 120.16314734710363 105.8691983318838 l 54.65415715907823 15.909028610786557 a77.92252705307493,77.92252705307493 0 0,0 -0.3848767266934121,1.2811294487910156 l -54.37300411238119 -16.844895663168295" fill="#41ffd0" stroke="none" /><path d="M 119.83427380445688 106.89939002012753 l 56.4638697235286 19.641064911625662 a80.78243901864747,80.78243901864747 0 0,0 -0.46684490774945625,1.3058482945295578 l -56.118384645735205 -20.607448162536144" fill="#47fffd" stroke="none" /><path d="M 119.31412917781788 108.2440532568976 l 50.63982781930391 21.61513126576454 a76.06002235020412,76.06002235020412 0 0,0 -0.522880483828657,1.196452874093782 l -50.261313453458285 -22.481246209634165" fill="#3effb2" stroke="none" /><path d="M 119.0197475246899 108.90220220490707 l 52.07938217652803 24.375780500779538 a78.50165843617947,78.50165843617947 0 0,0 -0.5817374446293231,1.2156075186000506 l -51.653265473938795 -25.26620052144469" fill="#42ffda" stroke="none" /><line stroke="#e1ed5e" stroke-width="0.3" x1="174.33088141563837" x2="178.70328620479359" y1="141.23008692659167" y2="143.65538615756765" /><path d="M 175.20536237346943 141.71514677278685 a86.0,86.0 0 0,1 -30.301960400862466,31.631185727798858" fill="none" id="id29" stroke="none" /><text fill="#e1ed5e" style="font-size:6.75px; font-family:Arial;" text-anchor="middle"><textPath startOffset="22.145653131862474" xlink:href="#id29">May</textPath></text><path d="M 118.18653347947321 110.5 l 47.962018288745746 27.6908841698851 a76.38176833977022,76.38176833977022 0 0,0 -0.6653444521962818,1.129900338020113 l -47.4796001264197 -28.510135676198757" fill="#3effb7" stroke="none" /><path d="M 117.423217284605 111.72311816256416 l 36.557202495747234 24.597317335249315 a65.06196857161541,65.06196857161541 0 0,0 -0.6314427113282997,0.9212937867220421 l -36.129570047603615 -25.221245857041403" fill="#69ff28" stroke="none" /><path d="M 116.79662413953412 112.60449989151573 l 34.853726782436325 26.154886350890443 a64.57591479995244,64.57591479995244 0 0,0 -0.6729672030717382,0.8809356713583473 l -34.399607602010285 -26.749342935489665" fill="#71ff27" stroke="none" /><path d="M 115.89218393027572 113.72728997021213 l 42.05058517204672 36.32229394061467 a76.56582358266607,76.56582358266607 0 0,0 -0.8677056615034924,0.9872897602596438 l -41.42086844658464 -37.038795978685606" fill="#3fffba" stroke="none" /><path d="M 115.16444852881244 114.52719865689866 l 41.66572760485117 39.91482452855807 a78.69944604575713,78.69944604575713 0 0,0 -0.9429437793920197,0.9675433864692348 l -40.974397024308345 -40.624190607095045" fill="#43ffdd" stroke="none" /><path d="M 114.65682725009322 115.03919595460226 l 38.97697749428194 39.99381259343834 a76.84541002042002,76.84541002042002 0 0,0 -0.9526178363465133,0.9125863381327034 l -38.284687172070115 -40.65701106187663" fill="#3fffbf" stroke="none" /><path d="M 113.86319453409587 115.77377054828091 l 39.64082832006924 45.103985861751305 a81.04802087095182,81.04802087095182 0 0,0 -1.0529315818192388,0.9094972223981819 l -38.86071725848714 -45.7778272166142" fill="#47fdff" stroke="none" /><path d="M 113.03279911837588 116.46651593811092 l 34.13770966641552 43.13188097252634 a76.00674847231619,76.00674847231619 0 0,0 -1.0300364169444076,0.8009625479355457 l -33.39226330483588 -43.71154457208268" fill="#3dffb1" stroke="none" /><path d="M 112.16784306229584 117.11559508785304 l 31.18705665457994 43.86850084677273 a74.82450993106467,74.82450993106467 0 0,0 -1.0532615445781228,0.7352583585293488 l -30.42940001882806 -44.39740402110721" fill="#3bff9d" stroke="none" /><path d="M 110.96478420261333 117.91015095944535 l 28.081073103166045 45.86832253944912 a74.78149941390897,74.78149941390897 0 0,0 -1.1005958040170722,0.6608761576263122 l -27.289544542591536 -46.34361269761135" fill="#3bff9c" stroke="none" /><line stroke="#e1ed5e" stroke-width="0.3" x1="143.1302829299769" x2="145.66735839644613" y1="173.24464959558577" y2="177.55315839532614" /><path d="M 143.63769802327073 174.10635135553383 a86.0,86.0 0 0,1 -40.68552437913181,11.842963189579606" fill="none" id="id30" stroke="none" /><text fill="#e1ed5e" style="font-size:6.75px; font-family:Arial;" text-anchor="middle"><textPath startOffset="21.407464694133747" xlink:href="#id30">June</textPath></text><path d="M 108.07796709384702 119.3841803445677 l 22.841741116412035 54.81186343550644 a80.38085137905819,80.38085137905819 0 0,0 -1.2782298439881277,0.5198449497277213 l -21.897456811233468 -55.19589564181345" fill="#46fff7" stroke="none" /><path d="M 107.74402155503746 119.51999308798841 l 19.25805123699815 48.54286940740723 a73.2233923424306,73.2233923424306 0 0,0 -1.1723683590401937,0.45349726661755557 l -18.421910615464423 -48.866306562162826" fill="#38ff81" stroke="none" /><path d="M 107.06938296918513 119.77432235084164 l 15.212447024466407 42.55192178979873 a66.18943009684173,66.18943009684173 0 0,0 -1.0731961380763868,0.37331332609817375 l -14.479745114344999 -42.8067935484655" fill="#57ff2a" stroke="none" /><path d="M 104.64783097203109 120.47920084513623 l 11.595793558144807 51.09320598468536 a73.39253883938629,73.39253883938629 0 0,0 -1.2310290723319828,0.2682970566935285 l -10.717002069193688 -51.28473449951261" fill="#38ff84" stroke="none" /><path d="M 102.15924093988457 120.88869738790638 l 4.819266823380816 46.62203482977702 a67.87045406632926,67.87045406632926 0 0,0 -1.159939790364897,0.10984750413240943 l -4.0182274696309035 -46.69789408941462" fill="#3dff2e" stroke="none" /><path d="M 101.08105385017728 120.97215588758144 l 2.8875674687656936 56.018037474203645 a77.09241096929208,77.09241096929208 0 0,0 -1.3222238325863351,0.05678198055024985 l -1.9255178755785292 -56.05935202317973" fill="#40ffc3" stroke="none" /><line stroke="#e1ed5e" stroke-width="0.3" x1="101.45913802915013" x2="101.54496967792366" y1="184.9874750549273" y2="189.98673829345242" /><path d="M 101.47630435890484 185.9873277026323 a86.0,86.0 0 0,1 -42.54439059252881,-10.42667462771756" fill="none" id="id31" stroke="none" /><text fill="#e1ed5e" style="font-size:6.75px; font-family:Arial;" text-anchor="middle"><textPath startOffset="22.145653131862474" xlink:href="#id31">July</textPath></text><path d="M 100.36049292484886 120.99690560180557 l 0.9332986030343222 54.359964691193085 a75.36797593722048,75.36797593722048 0 0,0 -1.2937915278831678,0.011105644221826135 l -6.658156770763738e-15 -54.36797593722048" fill="#3cffa6" stroke="none" /><path d="M 98.19965949673042 120.92268563240118 l -3.763395289616237 43.736357879023565 a64.89797426565299,64.89797426565299 0 0,0 -1.1091386333033764,-0.10503658174091954 l 4.513633486304628 -43.66530954177746" fill="#6cff28" stroke="none" /><path d="M 94.30408787586889 120.21278271476187 l -14.247479384023144 50.55927808335691 a73.52838536551812,73.52838536551812 0 0,0 -1.211957828572423,-0.35278326063478843 l 15.113297224977174 -50.3072511284196" fill="#39ff87" stroke="none" /><line stroke="#e1ed5e" stroke-width="0.3" x1="58.13341422392154" x2="55.67067388415222" y1="173.97424548756322" y2="178.32567169271397" /><path d="M 57.64086615596768 174.84453072859336 a86.0,86.0 0 0,1 -31.369924170532247,-30.572349798747897" fill="none" id="id32" stroke="none" /><text fill="#e1ed5e" style="font-size:6.75px; font-family:Arial;" text-anchor="middle"><textPath startOffset="22.145653131862474" xlink:href="#id32">August</textPath></text><path d="M 83.64595745247003 113.17365903436017 l -18.21089844806559 14.669410707899178 a44.38436299758419,44.38436299758419 0 0,0 -0.4728700931976242,-0.5974559153080131 l 18.460034971904772 -14.354634848676485" fill="#ff0000" stroke="none" /><path d="M 82.98947788004972 112.3143062007846 l -39.10748888076714 28.310806066131107 a69.27936854054133,69.27936854054133 0 0,0 -0.6891149557855961,-0.969326485542676 l 39.587718935082705 -27.635302353878927" fill="#30ff3a" stroke="none" /><line stroke="#e1ed5e" stroke-width="0.3" x1="26.387840678322732" x2="22.057713659400548" y1="142.50000000000003" y2="145.00000000000006" /><path d="M 25.521815274538298 143.00000000000003 a86.0,86.0 0 0,1 -11.493303480769221,-40.785679425670985" fill="none" id="id33" stroke="none" /><text fill="#e1ed5e" style="font-size:6.75px; font-family:Arial;" text-anchor="middle"><textPath startOffset="21.40746469413373" xlink:href="#id33">September</textPath></text><line stroke="#e1ed5e" stroke-width="0.3" x1="15.003131293944662" x2="10.003315487706104" y1="100.72959589197737" y2="100.7725132973878" /><path d="M 14.003168132696942 100.73817937305945 a86.0,86.0 0 0,1 10.791469493833604,-42.45332614584628" fill="none" id="id34" stroke="none" /><text fill="#e1ed5e" style="font-size:6.75px; font-family:Arial;" text-anchor="middle"><textPath startOffset="22.145653131862435" xlink:href="#id34">October</textPath></text><line stroke="#e1ed5e" stroke-width="0.3" x1="26.387840678322718" x2="22.05771365940052" y1="57.49999999999999" y2="54.99999999999999" /><path d="M 25.521815274538284 56.99999999999999 a86.0,86.0 0 0,1 29.574782752854787,-30.34633250058573" fill="none" id="id35" stroke="none" /><text fill="#e1ed5e" style="font-size:6.75px; font-family:Arial;" text-anchor="middle"><textPath startOffset="21.40746469413373" xlink:href="#id35">November</textPath></text><line stroke="#e1ed5e" stroke-width="0.3" x1="56.869717070023135" x2="54.33264160355391" y1="26.7553504044142" y2="22.446841604673864" /><path d="M 56.362301976729285 25.89364864446614 a86.0,86.0 0 0,1 42.16139366436587,-11.88097634709845" fill="none" id="id36" stroke="none" /><text fill="#e1ed5e" style="font-size:6.75px; font-family:Arial;" text-anchor="middle"><textPath startOffset="22.145653131862474" xlink:href="#id36">December</textPath></text></svg>