<?xml version="1.0" encoding="utf-8" ?>
<svg baseProfile="full" height="200mm" version="1.1" viewBox="0,0,200,200" width="200mm" xmlns="http://www.w3.org/2000/svg" xmlns:ev="http://www.w3.org/2001/xml-events" xmlns:xlink="http://www.w3.org/1999/xlink"><defs /><rect fill="#1a1a1a" height="200" width="200" x="0" y="0" /><text alignment-baseline="middle" fill="#e1ed5e" style="dominant-baseline: central; font-size:9.0px; font-family:Arial;" text-anchor="middle" x="100.0" y="100.0">2014</text><line stroke="#e1ed5e" stroke-width="0.3" x1="100.0" x2="100.0" y1="15.0" y2="10.0" /><path d="M 100.0 14.0 a86.0,86.0 0 0,1 42.46469731375804,11.215312516191453" fill="none" id="id1" stroke="none" /><text fill="#e1ed5e" style="font-size:6.75px; font-family:Arial;" text-anchor="middle"><textPath startOffset="22.20632615414155" xlink:href="#id1">January</textPath></text><line stroke="#e1ed5e" stroke-width="0.3" x1="143.23703022742887" x2="145.7803849466894" y1="26.81831364943548" y2="22.513508569990506" /><path d="M 143.74570117128098 25.957352633546492 a86.0,86.0 0 0,1 28.547481713284135,27.462654790039103" fill="none" id="id2" stroke="none" /><text fill="#e1ed5e" style="font-size:6.75px; font-family:Arial;" text-anchor="middle"><textPath startOffset="19.985693538727396" xlink:href="#id2">February</textPath></text><path d="M 117.65298651832404 88.62581576622439 l 25.637518895105533 -16.51878354448086 a51.49840298911248,51.49840298911248 0 0,0 0.473717633090539,0.7493075320135749 l -25.918064124442026 16.07502836475308" fill="#ccff1d" stroke="none" /><line stroke="#e1ed5e" stroke-width="0.3" x1="172.23445277983987" x2="176.4835382374775" y1="55.19839476539836" y2="52.563006222186495" /><path d="M 173.08426987136738 54.67131705675599 a86.0,86.0 0 0,1 12.851231095245387,41.99856678651699" fill="none" id="id3" stroke="none" /><text fill="#e1ed5e" style="font-size:6.75px; font-family:Arial;" text-anchor="middle"><textPath startOffset="22.20632615414155" xlink:href="#id3">March</textPath></text><path d="M 117.84615892207809 88.93136811851018 l 24.20650122671495 -15.013474461771754 a49.48436618661586,49.48436618661586 0 0,0 0.4427300303944997,0.72773176194518 l -24.46134705539567 14.594574926619492" fill="#e8ff1a" stroke="none" /><path d="M 118.21658344932153 89.55222093294921 l 29.80377694320903 -17.09339612076971 a55.357667426967495,55.357667426967495 0 0,0 0.4669613228839083,0.8306720884658565 l -30.09359590738537 16.57784052236906" fill="#98ff23" stroke="none" /><path d="M 118.3937258080291 89.86733742301442 l 25.757293675736477 -14.189075581339646 a50.40693869397329,50.40693869397329 0 0,0 0.4121172912831709,0.7635907509784676 l -25.997719066238112 13.74360384702872" fill="#dbff1b" stroke="none" /><path d="M 118.56541770881063 90.18545643968196 l 21.078375471207217 -11.14300994933853 a44.842495323188125,44.842495323188125 0 0,0 0.3548761769654984,0.6855078190788715 l -21.26706108133283 10.778529407999315" fill="#ffd213" stroke="none" /><path d="M 118.73160827565052 90.50648371742162 l 31.65940660230224 -16.045557202177196 a56.493350536941975,56.493350536941975 0 0,0 0.43214719516537775,0.8711823754741125 l -31.93091381042103 15.498215238204134" fill="#8aff24" stroke="none" /><path d="M 119.47837535516314 92.15188598940014 l 19.06954017089266 -7.683388509668957 a41.55922715764875,41.55922715764875 0 0,0 0.26163799486537,0.6658401587120506 l -19.198971715639733 7.353999346061121" fill="#ffa00e" stroke="none" /><path d="M 119.61058180528143 92.48833698450437 l 15.42515947806795 -5.9084733492363695 a37.51803869236496,37.51803869236496 0 0,0 0.22581466376825785,0.6050710309115362 l -15.524578730337833 5.642079181295499" fill="#ff5f08" stroke="none" /><path d="M 119.7369772167798 92.82701384747503 l 13.29970541531974 -4.833496118931763 a35.15078969054426,35.15078969054426 0 0,0 0.20177711449035324,0.5704510742626843 l -13.380935610619904 4.603847418242465" fill="#ff3805" stroke="none" /><path d="M 119.97218684219823 93.5106431181261 l 13.261039424655973 -4.308772901591814 a34.94348200916012,34.94348200916012 0 0,0 0.18094819269240514,0.573655219387589 l -13.333243101116585 4.079867515777806" fill="#ff3405" stroke="none" /><path d="M 120.18372546131832 94.20196356495316 l 18.11258671320153 -5.203075016916553 a39.845099815997415,39.845099815997415 0 0,0 0.18369203763296768,0.6608379942883571 l -18.19946552140086 4.890525719209244" fill="#ff850c" stroke="none" /><path d="M 120.28053869075195 94.5502522615342 l 16.818901092358043 -4.519543074728834 a38.415559237614275,38.415559237614275 0 0,0 0.1661082710490026,0.6400829281800531 l -16.894205695277346 4.229363720999931" fill="#ff6e0a" stroke="none" /><path d="M 120.37134235888165 94.90015583598534 l 11.589165441720047 -2.9012785069604448 a32.94680595851916,32.94680595851916 0 0,0 0.1329908800692294,0.5513330563559765 l -11.637389122050097 2.7013602189450623" fill="#ff1202" stroke="none" /><path d="M 120.53481517161879 95.60439243477599 l 15.542340188249106 -3.326936597275808 a36.8944281321964,36.8944281321964 0 0,0 0.1275856832273166,0.6221531025495338 l -15.59730516739142 3.0589078385628623" fill="#ff5507" stroke="none" /><line stroke="#e1ed5e" stroke-width="0.3" x1="184.98032266829074" x2="189.97916517819016" y1="98.17113171792111" y2="98.06355123074" /><path d="M 185.9800911702706 98.14961562048488 a86.0,86.0 0 0,1 -9.607161424134198,41.387399972396054" fill="none" id="id4" stroke="none" /><text fill="#e1ed5e" style="font-size:6.75px; font-family:Arial;" text-anchor="middle"><textPath startOffset="21.466115282336823" xlink:href="#id4">April</textPath></text><line stroke="#e1ed5e" stroke-width="0.3" x1="174.80103733775053" x2="179.2010983576182" y1="140.37084112569926" y2="142.7455964860345" /><path d="M 175.68104954172406 140.8457921977663 a86.0,86.0 0 0,1 -30.038265399797805,32.042727171017184" fill="none" id="id5" stroke="none" /><text fill="#e1ed5e" style="font-size:6.75px; font-family:Arial;" text-anchor="middle"><textPath startOffset="22.206326154141568" xlink:href="#id5">May</textPath></text><line stroke="#e1ed5e" stroke-width="0.3" x1="143.8653032363475" x2="146.44561519142675" y1="172.8068346515853" y2="177.08958963109032" /><path d="M 144.38136562736335 173.6633856474863 a86.0,86.0 0 0,1 -40.68145358897372,12.25698825130547" fill="none" id="id6" stroke="none" /><text fill="#e1ed5e" style="font-size:6.75px; font-family:Arial;" text-anchor="middle"><textPath startOffset="21.466115282336833" xlink:href="#id6">June</textPath></text><line stroke="#e1ed5e" stroke-width="0.3" x1="102.19456741930631" x2="102.32365962044197" y1="184.97166512339345" y2="189.96999836594603" /><path d="M 102.22038585953345 185.97133177190398 a86.0,86.0 0 0,1 -42.740103519485714,-10.115201625700543" fill="none" id="id7" stroke="none" /><text fill="#e1ed5e" style="font-size:6.75px; font-family:Arial;" text-anchor="middle"><textPath startOffset="22.20632615414155" xlink:href="#id7">July</textPath></text><path d="M 98.73552117531835 120.96189622390904 l -1.637277607408666 27.141967604614667 a48.191305290729865,48.191305290729865 0 0,0 -0.8275990140242171,-0.05707607345245511 l 2.104239382211813 -27.109763186645928" fill="#fbff18" stroke="none" /><path d="M 91.40352486487194 119.15986991738527 l -7.114995717878448 15.857940641303752 a38.38095064858484,38.38095064858484 0 0,0 -0.6004462209967305,-0.275635410032209 l 7.386909934642597 -15.733118160937469" fill="#ff6d0a" stroke="none" /><path d="M 91.07499286063937 119.00905698771935 l -18.106100903721572 38.5635438190693 a63.60255628270474,63.60255628270474 0 0,0 -0.9870127321588138,-0.4738260921011927 l 18.767226303880626 -38.24616345046854" fill="#33ff2f" stroke="none" /><line stroke="#e1ed5e" stroke-width="0.3" x1="58.666819895761336" x2="56.23545636021788" y1="174.27360380694188" y2="178.64263932499728" /><path d="M 58.180547188652646 175.14741091055294 a86.0,86.0 0 0,1 -31.652253787137756,-30.449443065178592" fill="none" id="id8" stroke="none" /><text fill="#e1ed5e" style="font-size:6.75px; font-family:Arial;" text-anchor="middle"><textPath startOffset="22.20632615414155" xlink:href="#id8">August</textPath></text><path d="M 82.24976979558568 111.22182372390057 l -11.656662529558059 7.369426233309716 a34.79080216434839,34.79080216434839 0 0,0 -0.31566085841071334,-0.5089458123634825 l 11.781788027636727 -7.16768408958097" fill="#ff3204" stroke="none" /><path d="M 82.05923443525364 110.91462005526583 l -15.523933546565862 9.444292430692444 a39.171053141593845,39.171053141593845 0 0,0 -0.3454870552792398,-0.5790561770262982 l 15.684201477543333 -9.175674159780035" fill="#ff7a0b" stroke="none" /><line stroke="#e1ed5e" stroke-width="0.3" x1="26.63291911575756" x2="22.317208475507996" y1="142.92168965132927" y2="145.44649492493687" /><path d="M 25.769776987707644 143.4266507060508 a86.0,86.0 0 0,1 -11.730757126820373,-40.83630448921669" fill="none" id="id9" stroke="none" /><text fill="#e1ed5e" style="font-size:6.75px; font-family:Arial;" text-anchor="middle"><textPath startOffset="21.46611528233685" xlink:href="#id9">September</textPath></text><path d="M 81.87401531095188 110.60418214915194 l -14.241367142957957 8.331577777847295 a37.49944624430897,37.49944624430897 0 0,0 -0.32115240725858113,-0.5599562920723113 l 14.382671546368917 -8.085201639916678" fill="#ff5f08" stroke="none" /><path d="M 81.69416730710424 110.29060199501025 l -15.855998371533307 8.913430555841531 a39.189610458497356,39.189610458497356 0 0,0 -0.32550440801750036,-0.5908850496983471 l 16.007079189002322 -8.639174987745362" fill="#ff7a0b" stroke="none" /><path d="M 81.51974371655577 109.97397251340807 l -16.798041024332747 9.066064717180982 a40.088418261115294,40.088418261115294 0 0,0 -0.32251608164033824,-0.6100788831047427 l 16.95160961419797 -8.775570818990113" fill="#ff890c" stroke="none" /><path d="M 81.18737489456691 109.33194174019688 l -21.715648852778465 10.77197726574463 a45.24056309805731,45.24056309805731 0 0,0 -0.34005121685450795,-0.7006062265636965 l 21.89785332624769 -10.396582083215648" fill="#ffd814" stroke="none" /><path d="M 81.02952815118164 109.00673069616217 l -15.487999322207342 7.353335226933358 a38.14496024971636,38.14496024971636 0 0,0 -0.27650624712584065,-0.595569857158515 l 15.61228018617301 -7.085645302496015" fill="#ff6909" stroke="none" /><path d="M 80.58989483394504 108.01547362559985 l -11.531235988061907 4.761865901402728 a33.475767322105526,33.475767322105526 0 0,0 -0.2153566024259249,-0.534497425954721 l 11.61149520474522 -4.562669107605201" fill="#ff1c02" stroke="none" /><path d="M 80.20201598880116 107.00284435728193 l -20.971610465443984 7.417973664792152 a43.24488208118599,43.24488208118599 0 0,0 -0.24219022131077875,-0.7039181498587576 l 21.096191517697992 -7.055882811844097" fill="#ffba11" stroke="none" /><path d="M 79.97269907076064 106.31721596034903 l -22.55686622979314 7.115117302415214 a44.65242288510652,44.65242288510652 0 0,0 -0.22490623257042108,-0.7350065810276664 l 22.675999234869693 -6.7257837488355" fill="#ffcf13" stroke="none" /><path d="M 79.86692584326677 105.97154293290107 l -21.449801603129206 6.362089076816867 a43.37342544705564,43.37342544705564 0 0,0 -0.20614224871846554,-0.7176082111113433 l 21.556136488733777 -5.9919233902009275" fill="#ffbc11" stroke="none" /><path d="M 79.76711848015287 105.62410040840567 l -23.581603183248323 6.5549389968834015 a45.47568658781711,45.47568658781711 0 0,0 -0.20315055421341285,-0.7559987860892615 l 23.690941813803512 -6.148049277618601" fill="#ffdb14" stroke="none" /><path d="M 79.67330655649465 105.27499134158121 l -26.342944364466 6.836271911146125 a48.21553474456228,48.21553474456228 0 0,0 -0.20156087741838397,-0.8051355115945608 l 26.45671655617944 -6.381808560154172" fill="#faff18" stroke="none" /><path d="M 79.58551787078972 104.9243191809786 l -31.202007656209215 7.526453221493305 a53.09692788840492,53.09692788840492 0 0,0 -0.2066720398297305,-0.8903377384766646 l 31.3269402619695 -6.988246825668066" fill="#b6ff1f" stroke="none" /><path d="M 79.4281124754447 104.21870165774334 l -61.715662573665874 12.656104973230022 a84.0,84.0 0 0,0 -0.2782802680973342,-1.4189450917281805 l 61.92437277473888 -11.591896154433886" fill="#4dd2ff" stroke="none" /><path d="M 79.07016306316243 101.71520430193888 l -26.117067253884905 2.1402988586617724 a47.20461946200204,47.20461946200204 0 0,0 -0.05939564252983738,-0.8104063522618841 l 26.150039455079078 -1.6904193699031276" fill="#fff517" stroke="none" /><line stroke="#e1ed5e" stroke-width="0.3" x1="15.007084014347285" x2="10.007500721073583" y1="101.09737516637583" y2="101.16192664675087" /><path d="M 14.007167355692545 101.11028546245083 a86.0,86.0 0 0,1 10.666146001902534,-42.60595125391555" fill="none" id="id10" stroke="none" /><text fill="#e1ed5e" style="font-size:6.75px; font-family:Arial;" text-anchor="middle"><textPath startOffset="22.20632615414155" xlink:href="#id10">October</textPath></text><path d="M 79.03285615573316 98.82574320788736 l -10.86091768473134 -0.6082614997349469 a31.87793707494991,31.87793707494991 0 0,0 0.03539879298030179,-0.5476036595286209 l 10.848838300746625 0.7951242235165796" fill="#ff0000" stroke="none" /><path d="M 79.3925641242962 95.95851677861259 l -22.116625596172092 -4.3374620598004965 a43.537939233245424,43.537939233245424 0 0,0 0.150559800072784,-0.7341830553795567 l 22.038686500184316 4.717520771343455" fill="#ffbe11" stroke="none" /><path d="M 79.46518482838121 95.60439243477599 l -24.03759797665696 -5.145400464185298 a45.58213299175279,45.58213299175279 0 0,0 0.17083665327955,-0.7658272189508293 l 23.945466936375375 5.558405852686087" fill="#ffdd14" stroke="none" /><path d="M 79.54389044137918 95.25157060432595 l -24.437589729051894 -5.6726411782415065 a46.08734042704694,46.08734042704694 0 0,0 0.18603308530606258,-0.7712272409335817 l 24.336323843485015 6.092453650834485" fill="#ffe515" stroke="none" /><path d="M 79.62865764111835 94.90015583598534 l -15.35239166475137 -3.843379766332085 a36.82616497627199,36.82616497627199 0 0,0 0.1592357553807006,-0.6136003218345147 l 15.283959577500362 4.107076513715464" fill="#ff5407" stroke="none" /><path d="M 79.71946130924805 94.55025226153421 l -18.871749036390145 -5.071180465184567 a40.5412328936268,40.5412328936268 0 0,0 0.18690131817396635,-0.6723834839195414 l 18.78166094764982 5.395275252523051" fill="#ff900d" stroke="none" /><path d="M 79.81627453868168 94.20196356495316 l -24.447510320263973 -7.02286383426739 a46.43622175744807,46.43622175744807 0 0,0 0.2273033217656528,-0.7663538024596417 l 24.323001101386616 7.4426470234735715" fill="#ffea16" stroke="none" /><path d="M 79.91906864156998 93.8553929516997 l -23.741887047174618 -7.264830693660841 a45.828511142804246,45.828511142804246 0 0,0 0.23731425113560606,-0.7523510280669987 l 23.61331731227081 7.672431888154255" fill="#ffe115" stroke="none" /><path d="M 80.02781315780177 93.51064311812611 l -23.130245388644965 -7.5154723054711 a45.32057926352156,45.32057926352156 0 0,0 0.24745620315172745,-0.7398625506036212 l 22.997451891721468 7.912507958997043" fill="#ffd914" stroke="none" /><path d="M 80.14247586403 93.16781622104843 l -22.50102737838446 -7.741708040322823 a44.7955936354697,44.7955936354697 0 0,0 0.2571414669548369,-0.7269735541236699 l 22.364432830619812 8.127879220873105" fill="#ffd113" stroke="none" /><path d="M 80.2630227832202 92.82701384747504 l -22.504829582736235 -8.178903445491168 a44.94497475711067,44.94497475711067 0 0,0 0.27051612281947446,-0.7248487170016038 l 22.360708871415135 8.565075299522114" fill="#ffd413" stroke="none" /><path d="M 80.52162464483688 92.15188598940014 l -20.738116090245082 -8.355681440246876 a43.35814999733583,43.35814999733583 0 0,0 0.28488020935083436,-0.6898600234385521 l 20.59121419400805 8.71141603413874" fill="#ffbc11" stroke="none" /><path d="M 80.65960295795068 91.81776055985345 l -22.87209475177335 -9.676376102819583 a45.83475332708815,45.83475332708815 0 0,0 0.3136609459605555,-0.7239727088693978 l 22.702143095970115 10.06864795627558" fill="#ffe115" stroke="none" /><path d="M 80.803312248108 91.48605970444005 l -12.758735602489432 -5.658638332319796 a34.95727487549881,34.95727487549881 0 0,0 0.2486921843654649,-0.5479602628510593 l 12.659441101160615 5.877420604012927" fill="#ff3505" stroke="none" /><line stroke="#e1ed5e" stroke-width="0.3" x1="26.266209847984243" x2="21.928928074336255" y1="57.711370442889674" y2="55.22380399835377" /><path d="M 25.398753493254645 57.213857153982495 a86.0,86.0 0 0,1 29.58750427330803,-30.492523968695096" fill="none" id="id11" stroke="none" /><text fill="#e1ed5e" style="font-size:6.75px; font-family:Arial;" text-anchor="middle"><textPath startOffset="21.46611528233685" xlink:href="#id11">November</textPath></text><path d="M 84.80347519578584 85.50635884689758 l -18.09970005730951 -17.262536072502847 a46.01188305224203,46.01188305224203 0 0,0 0.551563583741055,-0.5684347568529544 l 17.799872209865335 17.571535024905927" fill="#ffe315" stroke="none" /><path d="M 85.57189188830299 84.74124197986013 l -17.17232461542648 -18.160963580364008 a45.99418594123222,45.99418594123222 0 0,0 0.579947515643417,-0.5389980108270082 l 16.857169215988208 18.453866177265663" fill="#ffe315" stroke="none" /><path d="M 85.83668400450813 84.49514656593479 l -9.711978733837274 -10.631889232072146 a35.399986096158536,35.399986096158536 0 0,0 0.4534384428153347,-0.4071015110369541 l 9.527529303425968 10.797489751878379" fill="#ff3c05" stroke="none" /><path d="M 86.10567301691215 84.25364557470407 l -16.686523987016614 -18.910733938073225 a46.2201495008629,46.2201495008629 0 0,0 0.6010956883885188,-0.5212642576752482 l 16.35853449998132 19.195163189168156" fill="#ffe615" stroke="none" /><path d="M 86.37877921826538 84.01681056812374 l -14.776833835101058 -17.339189942981154 a43.78162255127949,43.78162255127949 0 0,0 0.5777974623708646,-0.48388875817013965 l 14.476178835771083 17.590979858545104" fill="#ffc212" stroke="none" /><path d="M 86.65592168130627 83.78471172551755 l -12.878505605341989 -15.649539514663232 a41.26731342945658,41.26731342945658 0 0,0 0.5523857883520854,-0.44665755832406606 l 12.607216418425402 15.868903170251432" fill="#ff9b0e" stroke="none" /><line stroke="#e1ed5e" stroke-width="0.3" x1="56.762969772571076" x2="54.21961505331055" y1="26.818313649435495" y2="22.513508569990535" /><path d="M 56.25429882871897 25.957352633546506 a86.0,86.0 0 0,1 42.265352541879196,-11.944610805530505" fill="none" id="id12" stroke="none" /><text fill="#e1ed5e" style="font-size:6.75px; font-family:Arial;" text-anchor="middle"><textPath startOffset="22.20632615414155" xlink:href="#id12">December</textPath></text></svg>