<?xml version="1.0" encoding="utf-8" ?>
<svg baseProfile="full" height="200mm" version="1.1" viewBox="0,0,200,200" width="200mm" xmlns="http://www.w3.org/2000/svg" xmlns:ev="http://www.w3.org/2001/xml-events" xmlns:xlink="http://www.w3.org/1999/xlink"><defs /><rect fill="#1a1a1a" height="200" width="200" x="0" y="0" /><text alignment-baseline="middle" fill="#e1ed5e" style="dominant-baseline: central; font-size:9.0px; font-family:Arial;" text-anchor="middle" x="100.0" y="100.0">2020</text><line stroke="#e1ed5e" stroke-width="0.3" x1="100.0" x2="100.0" y1="15.0" y2="10.0" /><path d="M 100.0 14.0 a86.0,86.0 0 0,1 42.35913384403234,11.155469271406648" fill="none" id="id73" stroke="none" /><text fill="#e1ed5e" style="font-size:6.75px; font-family:Arial;" text-anchor="middle"><textPath startOffset="22.145653131862478" xlink:href="#id73">January</textPath></text><path d="M 101.44090949804482 79.04949213459386 l 3.26764508822222 -47.510842433232504 a68.62307899682705,68.62307899682705 0 0,0 1.1745362983546719,0.09091653777936011 l -4.082750381352126 47.447748128458095" fill="#32ff4b" stroke="none" /><path d="M 106.04205211174951 79.88797359093562 l 13.194276309671269 -43.91945462909352 a66.85855887675666,66.85855887675666 0 0,0 1.0963510010435609,0.3396523426334577 l -13.94626794358646 43.68648569865342" fill="#31ff2f" stroke="none" /><line stroke="#e1ed5e" stroke-width="0.3" x1="143.13028292997686" x2="145.6673583964461" y1="26.7553504044142" y2="22.446841604673864" /><path d="M 143.63769802327073 25.89364864446614 a86.0,86.0 0 0,1 29.32050498858742,28.57503671076993" fill="none" id="id74" stroke="none" /><text fill="#e1ed5e" style="font-size:6.75px; font-family:Arial;" text-anchor="middle"><textPath startOffset="20.669276256404974" xlink:href="#id74">February</textPath></text><line stroke="#e1ed5e" stroke-width="0.3" x1="172.87174338648825" x2="177.1583165268699" y1="56.24261187166439" y2="53.66864786411523" /><path d="M 173.72905801456457 55.72781907015455 a86.0,86.0 0 0,1 12.242430191666344,42.057860355516425" fill="none" id="id75" stroke="none" /><text fill="#e1ed5e" style="font-size:6.75px; font-family:Arial;" text-anchor="middle"><textPath startOffset="22.145653131862474" xlink:href="#id75">March</textPath></text><line stroke="#e1ed5e" stroke-width="0.3" x1="184.99686870605535" x2="189.99668451229388" y1="99.2704041080226" y2="99.22748670261217" /><path d="M 185.99683186730306 99.26182062694052 a86.0,86.0 0 0,1 -10.086455211305974,41.156179273409016" fill="none" id="id76" stroke="none" /><text fill="#e1ed5e" style="font-size:6.75px; font-family:Arial;" text-anchor="middle"><textPath startOffset="21.40746469413373" xlink:href="#id76">April</textPath></text><path d="M 120.7213421655516 103.40968896794604 l 46.24767086331075 7.610036641255003 a67.86960334761076,67.86960334761076 0 0,0 -0.19903628137582255,1.1479883791422631 l -46.1102197644427 -8.402818053317853" fill="#31ff3e" stroke="none" /><path d="M 119.94978838288452 106.5578916946017 l 51.69125333545006 16.99194169011462 a75.41242278919339,75.41242278919339 0 0,0 -0.41482067746191664,1.2263436241122 l -51.391947236415774 -17.87678698870098" fill="#3effb6" stroke="none" /><path d="M 119.31412917781788 108.2440532568976 l 42.51173816796798 18.14573311969589 a67.22245679875847,67.22245679875847 0 0,0 -0.46212595853899974,1.0574346306421225 l -42.19397832741201 -18.872829820113857" fill="#30ff33" stroke="none" /><line stroke="#e1ed5e" stroke-width="0.3" x1="174.33088141563837" x2="178.70328620479359" y1="141.23008692659167" y2="143.65538615756765" /><path d="M 175.20536237346943 141.71514677278685 a86.0,86.0 0 0,1 -30.301960400862466,31.631185727798858" fill="none" id="id77" stroke="none" /><text fill="#e1ed5e" style="font-size:6.75px; font-family:Arial;" text-anchor="middle"><textPath startOffset="22.145653131862474" xlink:href="#id77">May</textPath></text><path d="M 115.16444852881244 114.52719865689866 l 34.351219553874046 32.90769127658807 a68.57018425435925,68.57018425435925 0 0,0 -0.8215792098056137,0.843012646438557 l -33.781253542917625 -33.49252661509436" fill="#32ff4a" stroke="none" /><path d="M 113.31354834802062 116.24036423190432 l 32.28640238314105 39.384161211837316 a71.92665248380348,71.92665248380348 0 0,0 -0.9615882036072995,0.7745873895686229 l -31.6055634091785 -39.93259689519934" fill="#38ff80" stroke="none" /><line stroke="#e1ed5e" stroke-width="0.3" x1="143.1302829299769" x2="145.66735839644613" y1="173.24464959558577" y2="177.55315839532614" /><path d="M 143.63769802327073 174.10635135553383 a86.0,86.0 0 0,1 -40.68552437913181,11.842963189579606" fill="none" id="id78" stroke="none" /><text fill="#e1ed5e" style="font-size:6.75px; font-family:Arial;" text-anchor="middle"><textPath startOffset="21.407464694133747" xlink:href="#id78">June</textPath></text><path d="M 109.06512990194946 118.94263497670748 l 20.422752757969846 42.67569851708073 a68.31071838530812,68.31071838530812 0 0,0 -1.0621057388737285,0.497119114655563 l -19.68715830522461 -43.01999386330683" fill="#32ff45" stroke="none" /><line stroke="#e1ed5e" stroke-width="0.3" x1="101.45913802915013" x2="101.54496967792366" y1="184.9874750549273" y2="189.98673829345242" /><path d="M 101.47630435890484 185.9873277026323 a86.0,86.0 0 0,1 -42.54439059252881,-10.42667462771756" fill="none" id="id79" stroke="none" /><text fill="#e1ed5e" style="font-size:6.75px; font-family:Arial;" text-anchor="middle"><textPath startOffset="22.145653131862474" xlink:href="#id79">July</textPath></text><path d="M 100.0 121.0 l 5.908009395401341e-15 48.24255776861318 a69.24255776861318,69.24255776861318 0 0,0 -1.1886405797153798,-0.010203049797011983 l 0.8281476548665218 -48.2354491170106" fill="#33ff55" stroke="none" /><path d="M 96.05791012581884 120.62667999033965 l -8.93176088805907 46.73474716922687 a68.58059421164285,68.58059421164285 0 0,0 -1.154451479913856,-0.23092262828213025 l 9.732708853503885 -46.57453514428188" fill="#32ff4a" stroke="none" /><path d="M 95.00130118170881 120.39639698878247 l -12.376853979594538 50.50178784852261 a72.99631804589043,72.99631804589043 0 0,0 -1.2145012923462326,-0.3087214792440555 l 13.24196056516615 -50.28188113744329" fill="#3aff91" stroke="none" /><path d="M 93.61358852112213 120.00534299687104 l -14.650425383297428 45.892248849337804 a69.17399161748082,69.17399161748082 0 0,0 -1.1281199654825127,-0.3708354399638226 l 15.436068086427685 -45.63399248797196" fill="#33ff54" stroke="none" /><path d="M 92.59220618246901 119.65005319985036 l -16.61749500807732 44.07987978609817 a68.10814093445357,68.10814093445357 0 0,0 -1.0904688634363449,-0.4218167823164347 l 17.371736134007193 -43.78812311564369" fill="#31ff42" stroke="none" /><path d="M 90.6110303473126 118.78422872680471 l -22.488985654348355 44.99303608295243 a71.30037546304546,71.30037546304546 0 0,0 -1.0901242687040347,-0.5566252190432152 l 23.25803714476597 -44.600352912236374" fill="#37ff76" stroke="none" /><line stroke="#e1ed5e" stroke-width="0.3" x1="58.13341422392154" x2="55.67067388415222" y1="173.97424548756322" y2="178.32567169271397" /><path d="M 57.64086615596768 174.84453072859336 a86.0,86.0 0 0,1 -31.369924170532247,-30.572349798747897" fill="none" id="id80" stroke="none" /><text fill="#e1ed5e" style="font-size:6.75px; font-family:Arial;" text-anchor="middle"><textPath startOffset="22.145653131862474" xlink:href="#id80">August</textPath></text><path d="M 87.2517909369889 116.68781488649013 l -29.085363805849216 38.07367487457785 a68.9120350869556,68.9120350869556 0 0,0 -0.9338895181283705,-0.7261981378768703 l 29.734663268612813 -37.56877568508019" fill="#33ff4f" stroke="none" /><path d="M 86.40962598614128 116.0094264158162 l -31.373693460288322 36.958132008189565 a69.47898681774305,69.47898681774305 0 0,0 -0.9026330156745653,-0.7796729006670171 l 32.00350595572575 -36.41411497505783" fill="#34ff59" stroke="none" /><path d="M 85.34317274990678 115.03919595460226 l -33.36997554995918 34.240534648651945 a68.81181319747671,68.81181319747671 0 0,0 -0.838875246145796,-0.8317054153300446 l 33.95284271623494 -33.66264922309324" fill="#33ff4e" stroke="none" /><line stroke="#e1ed5e" stroke-width="0.3" x1="26.387840678322732" x2="22.057713659400548" y1="142.50000000000003" y2="145.00000000000006" /><path d="M 25.521815274538298 143.00000000000003 a86.0,86.0 0 0,1 -11.493303480769221,-40.785679425670985" fill="none" id="id81" stroke="none" /><text fill="#e1ed5e" style="font-size:6.75px; font-family:Arial;" text-anchor="middle"><textPath startOffset="21.40746469413373" xlink:href="#id81">September</textPath></text><line stroke="#e1ed5e" stroke-width="0.3" x1="15.003131293944662" x2="10.003315487706104" y1="100.72959589197737" y2="100.7725132973878" /><path d="M 14.003168132696942 100.73817937305945 a86.0,86.0 0 0,1 10.791469493833604,-42.45332614584628" fill="none" id="id82" stroke="none" /><text fill="#e1ed5e" style="font-size:6.75px; font-family:Arial;" text-anchor="middle"><textPath startOffset="22.145653131862435" xlink:href="#id82">October</textPath></text><line stroke="#e1ed5e" stroke-width="0.3" x1="26.387840678322718" x2="22.05771365940052" y1="57.49999999999999" y2="54.99999999999999" /><path d="M 25.521815274538284 56.99999999999999 a86.0,86.0 0 0,1 29.574782752854787,-30.34633250058573" fill="none" id="id83" stroke="none" /><text fill="#e1ed5e" style="font-size:6.75px; font-family:Arial;" text-anchor="middle"><textPath startOffset="21.40746469413373" xlink:href="#id83">November</textPath></text><path d="M 86.68645165197937 83.75963576809568 l -11.957415385915336 -14.586102522271087 a39.8609164544443,39.8609164544443 0 0,0 0.5329010279771026,-0.4292673460538742 l 11.705263587582987 14.78921816211836" fill="#ff0000" stroke="none" /><path d="M 87.25179093698888 83.31218511350988 l -37.95546540082636 -49.68492259648927 a83.52366661682964,83.52366661682964 0 0,0 1.1468476011513142,-0.8606158204298521 l 37.09696481076429 50.329157444183124" fill="#4cd8ff" stroke="none" /><line stroke="#e1ed5e" stroke-width="0.3" x1="56.869717070023135" x2="54.33264160355391" y1="26.7553504044142" y2="22.446841604673864" /><path d="M 56.362301976729285 25.89364864446614 a86.0,86.0 0 0,1 42.16139366436587,-11.88097634709845" fill="none" id="id84" stroke="none" /><text fill="#e1ed5e" style="font-size:6.75px; font-family:Arial;" text-anchor="middle"><textPath startOffset="22.145653131862474" xlink:href="#id84">December</textPath></text><path d="M 90.61103034731259 81.2157712731953 l -28.166908958062205 -56.35268618041411 a84.0,84.0 0 0,0 1.2953590029517876,-0.6336249996111434 l 27.195389705848363 56.827904930122465" fill="#4dd2ff" stroke="none" /><path d="M 96.76829788921471 79.25015418208739 l -7.279704064733544 -46.740922202927685 a68.30441733760428,68.30441733760428 0 0,0 1.1601176590675535,-0.1704973450372507 l 6.476261300058305 46.85900062126382" fill="#32ff45" stroke="none" /><path d="M 98.5590905019552 79.04949213459386 l -3.4794563301077006 -50.59053140406991 a71.7100432271489,71.7100432271489 0 0,0 1.2288220982911076,-0.07392288599873648 l 2.6104898796841094 50.642806267893334" fill="#38ff7d" stroke="none" /></svg>