<?xml version="1.0" encoding="utf-8" ?>
<svg baseProfile="full" height="200mm" version="1.1" viewBox="0,0,200,200" width="200mm" xmlns="http://www.w3.org/2000/svg" xmlns:ev="http://www.w3.org/2001/xml-events" xmlns:xlink="http://www.w3.org/1999/xlink"><defs /><rect fill="#1a1a1a" height="200" width="200" x="0" y="0" /><text alignment-baseline="middle" fill="#e1ed5e" style="dominant-baseline: central; font-size:9.0px; font-family:Arial;" text-anchor="middle" x="100.0" y="100.0">2019</text><line stroke="#e1ed5e" stroke-width="0.3" x1="100.0" x2="100.0" y1="15.0" y2="10.0" /><path d="M 100.0 14.0 a86.0,86.0 0 0,1 42.46469731375804,11.215312516191453" fill="none" id="id61" stroke="none" /><text fill="#e1ed5e" style="font-size:6.75px; font-family:Arial;" text-anchor="middle"><textPath startOffset="22.20632615414155" xlink:href="#id61">January</textPath></text><path d="M 100.0 79.0 l 0.0 -53.47697451702376 a74.47697451702376,74.47697451702376 0 0,0 1.2819986877705538,0.011034567447071557 l -0.9205182084980256 53.46905132618525" fill="#30ff31" stroke="none" /><path d="M 101.44485096284872 79.0497635885617 l 3.7439347207196763 -54.28678772059766 a75.41573640238863,75.41573640238863 0 0,0 1.294312917899261,0.1004635929866997 l -4.6778378279812785 54.21429886542249" fill="#32ff4d" stroke="none" /><path d="M 106.74666289553966 80.11325718540242 l 19.334675218029098 -56.991688990259284 a81.18207606712409,81.18207606712409 0 0,0 1.3194715956768412,0.4603377312277186 l -20.312828817769212 56.65043040585936" fill="#44ffe9" stroke="none" /><path d="M 108.76106565485865 80.91482961587045 l 24.492263883796177 -53.35412924980007 a79.70718949292223,79.70718949292223 0 0,0 1.2419966246740906,0.5831340686410325 l -25.407038719769865 52.92463019851903" fill="#40ffc4" stroke="none" /><line stroke="#e1ed5e" stroke-width="0.3" x1="143.23703022742887" x2="145.7803849466894" y1="26.81831364943548" y2="22.513508569990506" /><path d="M 143.74570117128098 25.957352633546492 a86.0,86.0 0 0,1 28.547481713284135,27.462654790039103" fill="none" id="id62" stroke="none" /><text fill="#e1ed5e" style="font-size:6.75px; font-family:Arial;" text-anchor="middle"><textPath startOffset="19.985693538727396" xlink:href="#id62">February</textPath></text><path d="M 113.06298171725822 83.55741782278167 l 34.51128577583477 -43.43990251941742 a76.48021247974654,76.48021247974654 0 0,0 1.0237298954820164,0.8277850465042956 l -35.253919069881285 42.839411375649" fill="#36ff6c" stroke="none" /><path d="M 116.60985879189232 87.15038557335679 l 43.3024476952176 -33.499367067770216 a75.74769009134782,75.74769009134782 0 0,0 0.7889448712107279,1.0381589714350137 l -43.872668506652445 32.749023320454164" fill="#33ff57" stroke="none" /><line stroke="#e1ed5e" stroke-width="0.3" x1="172.23445277983987" x2="176.4835382374775" y1="55.19839476539836" y2="52.563006222186495" /><path d="M 173.08426987136738 54.67131705675599 a86.0,86.0 0 0,1 12.851231095245387,41.99856678651699" fill="none" id="id63" stroke="none" /><text fill="#e1ed5e" style="font-size:6.75px; font-family:Arial;" text-anchor="middle"><textPath startOffset="22.20632615414155" xlink:href="#id63">March</textPath></text><path d="M 118.03404312379186 89.2402003453031 l 46.35110611739183 -27.654842132365303 a74.97420987538183,74.97420987538183 0 0,0 0.6517055560467715,1.113976048743763 l -46.82027134790893 26.852886671267644" fill="#31ff40" stroke="none" /><path d="M 119.196687751892 91.48605970444005 l 50.561726599148145 -22.42467695830208 a76.31143040431344,76.31143040431344 0 0,0 0.5222219759187408,1.205360321091938 l -50.940239284909566 21.55101749262354" fill="#35ff67" stroke="none" /><path d="M 120.18372546131832 94.20196356495316 l 53.35328893212166 -15.32642295154454 a76.51101404553953,76.51101404553953 0 0,0 0.35272754080909685,1.268948636000725 l -53.60920324349711 14.405763012124863" fill="#36ff6d" stroke="none" /><path d="M 120.67395015179393 96.31383870115 l 53.01516203966978 -9.452593100401502 a74.85126667418513,74.85126667418513 0 0,0 0.21524422177654318,1.2703835812019375 l -53.170018122966546 8.538623730883728" fill="#31ff3d" stroke="none" /><path d="M 120.98425023603335 99.18683210126433 l 55.57936809409728 -2.1537752103492167 a76.62108328139496,76.62108328139496 0 0,0 0.03972732218606163,1.3183564155334908 l -55.60820711073899 1.1967486473907265" fill="#36ff70" stroke="none" /><line stroke="#e1ed5e" stroke-width="0.3" x1="184.98032266829074" x2="189.97916517819016" y1="98.17113171792111" y2="98.06355123074" /><path d="M 185.9800911702706 98.14961562048488 a86.0,86.0 0 0,1 -9.607161424134198,41.387399972396054" fill="none" id="id64" stroke="none" /><text fill="#e1ed5e" style="font-size:6.75px; font-family:Arial;" text-anchor="middle"><textPath startOffset="21.466115282336823" xlink:href="#id64">April</textPath></text><path d="M 120.9764740272857 100.99374915477107 l 56.37235480106509 2.6706099348795944 a77.43557870033268,77.43557870033268 0 0,0 -0.07453598174617308,1.3308900245183013 l -56.31803246843139 -3.6405716757333186" fill="#39ff87" stroke="none" /><path d="M 120.02730092923936 106.31721596034902 l 60.08190278771807 18.951647881047055 a84.0,84.0 0 0,0 -0.4468309959350121,1.375204400088819 l -59.746779540766816 -19.98305118111367" fill="#4dd2ff" stroke="none" /><path d="M 118.97047184881838 109.00673069616215 l 49.94920950780545 23.71470156927107 a76.29295254346823,76.29295254346823 0 0,0 -0.573456862011172,1.1814909880549047 l -49.533599389179564 -24.57098151329125" fill="#35ff67" stroke="none" /><line stroke="#e1ed5e" stroke-width="0.3" x1="174.80103733775053" x2="179.2010983576182" y1="140.37084112569926" y2="142.7455964860345" /><path d="M 175.68104954172406 140.8457921977663 a86.0,86.0 0 0,1 -30.038265399797805,32.042727171017184" fill="none" id="id65" stroke="none" /><text fill="#e1ed5e" style="font-size:6.75px; font-family:Arial;" text-anchor="middle"><textPath startOffset="22.206326154141568" xlink:href="#id65">May</textPath></text><path d="M 117.75023020441432 111.22182372390056 l 32.204686072021175 20.360035110637664 a59.10082459348922,59.10082459348922 0 0,0 -0.5510311440862479,0.8552125724186833 l -31.849450064557878 -20.911369282977798" fill="#ff0000" stroke="none" /><path d="M 116.498646956653 112.99209946851258 l 47.4403277459106 37.3575759583829 a81.38355055911968,81.38355055911968 0 0,0 -0.8761601445140541,1.0931444960621375 l -46.79024968934169 -38.16864828802329" fill="#45ffee" stroke="none" /><path d="M 114.81725581225074 114.88116024355365 l 39.004913896590686 39.17313579085804 a76.28035705175444,76.28035705175444 0 0,0 -0.9384301846243894,0.9184514490269318 l -38.324833759590504 -39.83873734280754" fill="#35ff66" stroke="none" /><line stroke="#e1ed5e" stroke-width="0.3" x1="143.8653032363475" x2="146.44561519142675" y1="172.8068346515853" y2="177.08958963109032" /><path d="M 144.38136562736335 173.6633856474863 a86.0,86.0 0 0,1 -40.68145358897372,12.25698825130547" fill="none" id="id66" stroke="none" /><text fill="#e1ed5e" style="font-size:6.75px; font-family:Arial;" text-anchor="middle"><textPath startOffset="21.466115282336833" xlink:href="#id66">June</textPath></text><path d="M 110.8373102113329 117.98757091392108 l 29.520695914147986 48.997915610900215 a78.20373433149703,78.20373433149703 0 0,0 -1.1590245109296489,0.6847721105159995 l -28.672903532189956 -49.49880629370996" fill="#3bff9c" stroke="none" /><path d="M 108.59647513512805 119.15986991738527 l 22.70683459859925 50.60911481811254 a76.4696569320655,76.4696569320655 0 0,0 -1.2055963060105366,0.5284979913454827 l -21.832317617930958 -50.99247736275248" fill="#36ff6c" stroke="none" /><path d="M 106.2309692047433 120.05430185196036 l 16.26732774860483 52.356204994072264 a75.82515985806012,75.82515985806012 0 0,0 -1.249761209235405,0.3765428003951025 l -15.36369156492918 -52.628463163573095" fill="#34ff59" stroke="none" /><path d="M 103.7750983002368 120.6578951692458 l 10.109319245800604 55.319687224856544 a77.2358082565679,77.2358082565679 0 0,0 -1.309886311893533,0.22774052553931867 l -9.15558396243502 -55.48550632891687" fill="#38ff82" stroke="none" /><path d="M 101.26447882468166 120.96189622390904 l 3.2982322392706704 54.67644105416193 a75.7758299093077,75.7758299093077 0 0,0 -1.302665653482419,0.06733293470772396 l -2.3565785173747718 -54.725113795631856" fill="#34ff58" stroke="none" /><line stroke="#e1ed5e" stroke-width="0.3" x1="102.19456741930631" x2="102.32365962044197" y1="184.97166512339345" y2="189.96999836594603" /><path d="M 102.22038585953345 185.97133177190398 a86.0,86.0 0 0,1 -42.740103519485714,-10.115201625700543" fill="none" id="id67" stroke="none" /><text fill="#e1ed5e" style="font-size:6.75px; font-family:Arial;" text-anchor="middle"><textPath startOffset="22.20632615414155" xlink:href="#id67">July</textPath></text><path d="M 98.73552117531835 120.96189622390904 l -3.1893557893499587 52.871541834090465 a73.96764980877515,73.96764980877515 0 0,0 -1.2702613818432178,-0.0876046620468534 l 4.0989799319721065 -52.80880882752733" fill="#3aff2e" stroke="none" /><path d="M 96.22490169976321 120.6578951692458 l -9.263724894726282 50.69247011130397 a72.53196216825648,72.53196216825648 0 0,0 -1.22624740706627,-0.23501323405767094 l 10.134939916364246 -50.52549967889782" fill="#5eff2a" stroke="none" /><path d="M 91.40352486487194 119.15986991738527 l -21.58705965008982 48.113354403181944 a73.73420157983549,73.73420157983549 0 0,0 -1.1535259535958313,-0.5295271884206149 l 22.41205359945307 -47.73464014442726" fill="#40ff2d" stroke="none" /><line stroke="#e1ed5e" stroke-width="0.3" x1="58.666819895761336" x2="56.23545636021788" y1="174.27360380694188" y2="178.64263932499728" /><path d="M 58.180547188652646 175.14741091055294 a86.0,86.0 0 0,1 -31.652253787137756,-30.449443065178592" fill="none" id="id68" stroke="none" /><text fill="#e1ed5e" style="font-size:6.75px; font-family:Arial;" text-anchor="middle"><textPath startOffset="22.20632615414155" xlink:href="#id68">August</textPath></text><path d="M 85.18274418774928 114.88116024355367 l -39.40367259981845 39.57361427597258 a76.84550439576265,76.84550439576265 0 0,0 -0.929316012554293,-0.9413922143171696 l 40.07902923742828 -38.88948156767475" fill="#37ff77" stroke="none" /><line stroke="#e1ed5e" stroke-width="0.3" x1="26.63291911575756" x2="22.317208475507996" y1="142.92168965132927" y2="145.44649492493687" /><path d="M 25.769776987707644 143.4266507060508 a86.0,86.0 0 0,1 -11.730757126820373,-40.83630448921669" fill="none" id="id69" stroke="none" /><text fill="#e1ed5e" style="font-size:6.75px; font-family:Arial;" text-anchor="middle"><textPath startOffset="21.46611528233685" xlink:href="#id69">September</textPath></text><path d="M 80.73074385275274 108.34839909993369 l -48.10694136419609 20.842317052430218 a73.4278550727781,73.4278550727781 0 0,0 -0.49248768286449085,-1.1640954037819617 l 48.45858002825289 -20.0111471229821" fill="#47ff2c" stroke="none" /><path d="M 79.97269907076064 106.31721596034903 l -51.04261468761318 16.100383236952858 a74.52168583410744,74.52168583410744 0 0,0 -0.3753523442360823,-1.226673178704814 l 51.312193804355395 -15.219383085695997" fill="#30ff33" stroke="none" /><path d="M 79.0235259727143 100.99374915477108 l -53.90027513013828 2.553496492443371 a74.96072649104647,74.96072649104647 0 0,0 -0.04996620432376841,-1.289405713758411 l 53.936243467313254 -1.6253135316709635" fill="#31ff40" stroke="none" /><line stroke="#e1ed5e" stroke-width="0.3" x1="15.007084014347285" x2="10.007500721073583" y1="101.09737516637583" y2="101.16192664675087" /><path d="M 14.007167355692545 101.11028546245083 a86.0,86.0 0 0,1 10.666146001902534,-42.60595125391555" fill="none" id="id70" stroke="none" /><text fill="#e1ed5e" style="font-size:6.75px; font-family:Arial;" text-anchor="middle"><textPath startOffset="22.20632615414155" xlink:href="#id70">October</textPath></text><path d="M 79.91906864156998 93.8553929516997 l -48.94064088019859 -14.975451164746847 a72.18056728243917,72.18056728243917 0 0,0 0.3737733747840696,-1.1849637408508522 l 48.675612021646316 15.815665072024114" fill="#67ff28" stroke="none" /><line stroke="#e1ed5e" stroke-width="0.3" x1="26.266209847984243" x2="21.928928074336255" y1="57.711370442889674" y2="55.22380399835377" /><path d="M 25.398753493254645 57.213857153982495 a86.0,86.0 0 0,1 29.58750427330803,-30.492523968695096" fill="none" id="id71" stroke="none" /><text fill="#e1ed5e" style="font-size:6.75px; font-family:Arial;" text-anchor="middle"><textPath startOffset="21.46611528233685" xlink:href="#id71">November</textPath></text><path d="M 83.6137871275137 86.86637796730984 l -42.09504489318833 -33.739364512013296 a74.94754417240921,74.94754417240921 0 0,0 0.8155060408841278,-0.9997139796042545 l 41.50804036022781 34.458962661225634" fill="#31ff3f" stroke="none" /><path d="M 84.07557802195018 86.31012108654704 l -39.73860043603478 -34.162409719440774 a73.40445212435452,73.40445212435452 0 0,0 0.8319455645336677,-0.9510575965944138 l 39.14466300792327 34.84138287223813" fill="#48ff2c" stroke="none" /><path d="M 84.5562425177563 85.77008943001954 l -39.87284037926375 -36.73891884279951 a75.21800031030335,75.21800031030335 0 0,0 0.8855403644163512,-0.9446327182430146 l 39.23453269287695 37.41982097792057" fill="#32ff47" stroke="none" /><path d="M 85.05521093208273 85.24692304244772 l -39.02000264616281 -38.51945312219514 a75.82981739290713,75.82981739290713 0 0,0 0.924994499805372,-0.9210222794609237 l 38.351172346190125 39.185411252306174" fill="#34ff59" stroke="none" /><path d="M 86.10567301691215 84.25364557470407 l -36.26620873337746 -41.100268985508876 a75.81304595234684,75.81304595234684 0 0,0 0.985952999669669,-0.8550087255713391 l 35.55336193506102 41.71844270449989" fill="#34ff59" stroke="none" /><line stroke="#e1ed5e" stroke-width="0.3" x1="56.762969772571076" x2="54.21961505331055" y1="26.818313649435495" y2="22.513508569990535" /><path d="M 56.25429882871897 25.957352633546506 a86.0,86.0 0 0,1 42.265352541879196,-11.944610805530505" fill="none" id="id72" stroke="none" /><text fill="#e1ed5e" style="font-size:6.75px; font-family:Arial;" text-anchor="middle"><textPath startOffset="22.20632615414155" xlink:href="#id72">December</textPath></text><path d="M 98.91598698831166 79.02799685794201 l -2.4352385769228446 -47.1136697956632 a68.17656482345149,68.17656482345149 0 0,0 1.1725043524853822,-0.05049050384644951 l 1.6238933920481384 47.14860802603384" fill="#d5ff1c" stroke="none" /></svg>